<?xml version="1.0" encoding="utf-8"?>
<!-- Generator: Adobe Illustrator 16.0.0, SVG Export Plug-In . SVG Version: 6.00 Build 0)  -->
<!DOCTYPE svg PUBLIC "-//W3C//DTD SVG 1.1//EN" "http://www.w3.org/Graphics/SVG/1.1/DTD/svg11.dtd">
<svg version="1.1" id="Layer_1" xmlns="http://www.w3.org/2000/svg" xmlns:xlink="http://www.w3.org/1999/xlink" x="0px" y="0px"
	 width="445px" height="328px" viewBox="0 0 445 328" enable-background="new 0 0 445 328" xml:space="preserve">
<g>
	<path fill="#4559A8" d="M-544.018,575.45c1.474-0.288,2.484-1.23,3.031-2.826c0.548-1.595,0.584-3.616,0.105-6.062
		c-0.479-2.447-1.275-4.312-2.386-5.596c-1.111-1.285-2.404-1.783-3.877-1.494c-1.446,0.282-2.437,1.228-2.968,2.833
		c-0.532,1.606-0.56,3.632-0.081,6.078s1.267,4.306,2.361,5.579C-546.736,575.238-545.464,575.733-544.018,575.45z"/>
	<path fill="#4559A8" d="M-596.012,585.623c1.472-0.287,2.483-1.23,3.031-2.826c0.548-1.595,0.582-3.615,0.104-6.062
		s-1.273-4.312-2.385-5.596c-1.11-1.284-2.404-1.782-3.876-1.495c-1.447,0.283-2.437,1.229-2.969,2.834
		c-0.532,1.606-0.559,3.633-0.08,6.078c0.479,2.446,1.266,4.307,2.361,5.58C-598.731,585.411-597.459,585.906-596.012,585.623z"/>
	<path fill="#4559A8" d="M-615.123,576.295c-0.571-2.919-1.534-5.188-2.889-6.808c-1.689-2.072-3.874-2.847-6.557-2.321
		l-5.484,1.072l4.308,22.015l5.522-1.081C-615.331,588.215-613.63,583.923-615.123,576.295z"/>
	<path fill="#4559A8" d="M-486.352,492.33c-1.225-6.361-3.816-7.748-10.005-6.527c-94.817,18.711-189.667,37.26-284.54,55.689
		c-5.752,1.117-7.716,3.014-6.475,9.232c11.454,57.414,22.679,114.873,33.744,172.363c1.103,5.73,3.346,7.186,8.942,6.018
		c19.102-3.99,38.285-7.574,57.43-11.363c1.49-0.297,2.903-0.988,4.661-1.605c-1.636-8.361-3.22-16.314-4.744-24.279
		c-1.555-8.129-1.08-8.705,8.291-10.508c8.802-1.693,9.59-1.254,11.145,6.541c1.661,8.314,3.264,16.639,4.831,24.648
		c41.116-8.045,81.134-15.875,121.597-23.793c-1.783-9.111-3.331-17.775-5.219-26.365c-1.028-4.676,0.61-7.115,5.167-7.922
		c2.058-0.367,4.114-0.758,6.152-1.217c4.733-1.064,7.416,0.361,8.253,5.553c1.395,8.664,3.293,17.248,5.132,26.643
		c21.516-4.209,41.979-8.43,62.538-12.109c6.459-1.156,7.76-3.895,6.548-9.998C-464.217,606.361-475.377,549.363-486.352,492.33z
		 M-518.683,593.188l-104.484,20.443c-1.499,0.293-2.954-0.686-3.247-2.186c-0.294-1.5,0.686-2.954,2.185-3.247l104.483-20.443
		c1.501-0.294,2.954,0.685,3.248,2.185C-516.206,591.439-517.182,592.894-518.683,593.188z M-514.13,602.044
		c0.293,1.499-0.684,2.954-2.185,3.247l-104.484,20.443c-1.498,0.293-2.954-0.686-3.247-2.185c-0.294-1.501,0.686-2.955,2.185-3.248
		l104.483-20.443C-515.877,599.564-514.424,600.543-514.13,602.044z M-534.844,553.666l4.496-0.88l0.355,1.814
		c1.026-1.729,2.368-2.757,4.026-3.081c0.498-0.098,1.049-0.15,1.648-0.159l0.941,4.813c-0.651-0.119-1.28-0.119-1.884,0
		c-1.184,0.23-2.073,0.891-2.665,1.975c-0.594,1.086-0.729,2.457-0.405,4.114l2.493,12.743l-4.653,0.91L-534.844,553.666z
		 M-554.289,560.215c1.197-2.528,3.321-4.091,6.373-4.688c3.077-0.602,5.66,0.039,7.75,1.924c2.016,1.791,3.382,4.514,4.097,8.17
		c0.721,3.682,0.481,6.719-0.716,9.109c-1.235,2.48-3.392,4.021-6.469,4.624c-3.052,0.597-5.604-0.022-7.654-1.86
		c-1.959-1.773-3.299-4.502-4.02-8.184C-555.648,565.628-555.435,562.596-554.289,560.215z M-569.174,560.342l2.486-0.486
		l-1.173-5.996l4.772-0.935l1.173,5.997l2.92-0.571l0.718,3.669l-2.92,0.57l2.687,13.729c0.124,0.631,0.305,0.999,0.544,1.103
		c0.238,0.104,0.671,0.079,1.297-0.07c0.363-0.098,0.8-0.239,1.31-0.42l0.688,3.512c-0.88,0.525-1.897,0.903-3.055,1.129
		c-3.024,0.592-4.864-0.782-5.518-4.121l-2.725-13.928l-2.486,0.487L-569.174,560.342z M-584.928,566.496
		c1.195-2.691,3.291-4.33,6.288-4.916c5.076-0.994,8.399,1.333,9.968,6.979l-4.615,0.902c-1.027-3.02-2.555-4.332-4.58-3.937
		c-1.394,0.272-2.332,1.344-2.812,3.213c-0.406,1.69-0.378,3.72,0.085,6.087c0.453,2.314,1.187,4.041,2.201,5.18
		c1.015,1.14,2.141,1.588,3.377,1.346c1.104-0.215,1.908-0.918,2.413-2.109c0.425-1.039,0.584-2.313,0.481-3.822l4.615-0.902
		c0.484,6.104-1.852,9.66-7.007,10.668c-2.682,0.525-5.016-0.063-7-1.762c-1.985-1.701-3.313-4.262-3.981-7.681
		C-586.209,572.086-586.02,569.004-584.928,566.496z M-606.284,570.388c1.197-2.528,3.322-4.091,6.373-4.688
		c3.077-0.602,5.66,0.04,7.75,1.925c2.016,1.791,3.381,4.514,4.097,8.169c0.72,3.683,0.481,6.719-0.716,9.11
		c-1.236,2.48-3.393,4.021-6.469,4.623c-3.052,0.598-5.603-0.022-7.654-1.86c-1.959-1.773-3.299-4.501-4.019-8.184
		C-607.642,575.801-607.429,572.77-606.284,570.388z M-635.597,565.022l10.968-2.146c3.603-0.705,6.706,0.148,9.308,2.562
		c2.439,2.281,4.082,5.577,4.926,9.892c0.911,4.654,0.737,8.512-0.521,11.57c-1.381,3.41-3.991,5.491-7.832,6.242l-10.928,2.139
		L-635.597,565.022z M-698.125,573.129c12.936-2.617,25.734,5.774,28.325,18.57c2.563,12.646-6.137,25.775-18.783,28.345
		c-12.738,2.588-25.723-6.012-28.305-18.747C-719.495,588.435-711.041,575.742-698.125,573.129z M-647.203,652.252
		c-2.431,8.039-9.42,10.432-16.34,12.463c-5.101,1.498-10.449,2.143-15.688,3.168c0.032,0.232,0.061,0.467,0.092,0.699
		c-7.582,0.846-15.149,2.209-22.749,2.402c-9.238,0.234-14.253-4.104-16.226-12.947c-2.134-9.563-3.578-19.199-0.048-28.763
		c3.171-8.593,5.72-9.685,13.959-6.337c11.112,4.514,24.149,1.762,32.255-7.771c3.17-3.727,5.425-3.978,9.237-1.684
		C-653.143,619.242-644.002,641.682-647.203,652.252z M-509.125,625.073c1.627,8.619,1.172,9.415-6.74,10.978
		c-15.927,3.146-31.864,6.244-47.797,9.361c-16.162,3.162-32.387,6.035-48.455,9.617c-7.078,1.58-8.986-1.408-10.006-7.502
		c-1.683-10.084-1.684-10.793,5.76-12.265c32.311-6.388,64.635-12.706,96.966-18.978
		C-511.699,614.79-510.92,615.561-509.125,625.073z"/>
</g>
<g>
	<rect x="-491" y="127.662" fill="#FFFFFF" width="256" height="122"/>
	<g>
		<path fill="#83C441" d="M-280.594,176.888c1.5,0,2.673-0.73,3.518-2.191c0.844-1.46,1.266-3.437,1.266-5.929
			c0-2.493-0.422-4.476-1.266-5.95c-0.845-1.474-2.018-2.211-3.518-2.211c-1.475,0-2.627,0.737-3.457,2.211
			c-0.832,1.474-1.246,3.457-1.246,5.95c0,2.492,0.414,4.469,1.246,5.929C-283.221,176.158-282.068,176.888-280.594,176.888z"/>
		<path fill="#83C441" d="M-333.575,176.888c1.501,0,2.673-0.73,3.518-2.191c0.844-1.46,1.267-3.437,1.267-5.929
			c0-2.493-0.423-4.476-1.267-5.95c-0.845-1.474-2.017-2.211-3.518-2.211c-1.474,0-2.627,0.737-3.457,2.211
			c-0.831,1.474-1.246,3.457-1.246,5.95c0,2.492,0.415,4.469,1.246,5.929C-336.202,176.158-335.049,176.888-333.575,176.888z"/>
		<path fill="#83C441" d="M-350.539,164.064c0-2.975-0.51-5.386-1.527-7.236c-1.26-2.358-3.256-3.537-5.99-3.537h-5.587v22.431
			h5.628C-353.031,175.722-350.539,171.836-350.539,164.064z"/>
		<path fill="#83C441" d="M-208.041,106.387c0.02-6.478-2.258-8.337-8.566-8.326c-96.646,0.156-193.292,0.146-289.938,0.016
			c-5.859-0.008-8.15,1.477-8.127,7.818c0.217,58.544,0.198,117.089,0.02,175.634c-0.018,5.836,1.904,7.695,7.621,7.623
			c19.511-0.248,39.027-0.082,58.543-0.125c1.52-0.004,3.038-0.412,4.882-0.68c0-8.52-0.026-16.629,0.007-24.738
			c0.035-8.277,0.61-8.75,10.154-8.721c8.963,0.027,9.651,0.611,9.682,8.559c0.033,8.479,0.008,16.957,0.008,25.117
			c41.897,0,82.672,0,123.901,0c0-9.285,0.146-18.084-0.057-26.877c-0.111-4.787,1.963-6.865,6.592-6.783
			c2.09,0.035,4.182,0.047,6.271-0.012c4.848-0.137,7.209,1.777,7.033,7.033c-0.295,8.771-0.082,17.561-0.082,27.133
			c21.926,0,42.818-0.213,63.701,0.125c6.561,0.105,8.363-2.332,8.346-8.557C-208.215,222.547-208.223,164.467-208.041,106.387z
			 M-259.137,199.16h-106.465c-1.529,0-2.768-1.239-2.768-2.768c0-1.529,1.238-2.768,2.768-2.768h106.465
			c1.527,0,2.768,1.238,2.768,2.768C-256.369,197.92-257.609,199.16-259.137,199.16z M-256.369,208.726
			c0,1.527-1.24,2.768-2.768,2.768h-106.465c-1.529,0-2.768-1.24-2.768-2.768c0-1.529,1.238-2.769,2.768-2.769h106.465
			C-257.609,205.958-256.369,207.197-256.369,208.726z M-267.41,157.271h4.584v1.849c1.34-1.5,2.854-2.251,4.541-2.251
			c0.51,0,1.059,0.054,1.648,0.161v4.904c-0.617-0.241-1.232-0.362-1.85-0.362c-1.205,0-2.203,0.476-2.994,1.427
			s-1.186,2.271-1.186,3.959v12.984h-4.744V157.271z M-287.75,159.964c1.662-2.251,4.047-3.376,7.156-3.376
			c3.135,0,5.547,1.125,7.235,3.376c1.634,2.145,2.452,5.079,2.452,8.804c0,3.752-0.818,6.687-2.452,8.803
			c-1.688,2.197-4.101,3.296-7.235,3.296c-3.109,0-5.494-1.099-7.156-3.296c-1.581-2.117-2.371-5.051-2.371-8.803
			S-289.331,162.081-287.75,159.964z M-302.381,157.23h2.532v-6.11h4.864v6.11h2.975v3.738h-2.975v13.989
			c0,0.643,0.106,1.04,0.321,1.186c0.214,0.147,0.644,0.207,1.286,0.181c0.375-0.026,0.83-0.081,1.367-0.161v3.578
			c-0.965,0.348-2.037,0.522-3.217,0.522c-3.082,0-4.622-1.702-4.622-5.105v-14.19h-2.532V157.23z M-319.023,160.245
			c1.688-2.412,4.06-3.618,7.115-3.618c5.172,0,7.985,2.921,8.441,8.763h-4.703c-0.43-3.162-1.676-4.743-3.738-4.743
			c-1.421,0-2.547,0.871-3.377,2.613c-0.724,1.582-1.086,3.578-1.086,5.99c0,2.358,0.389,4.194,1.166,5.507
			c0.777,1.313,1.795,1.969,3.055,1.969c1.126,0,2.051-0.535,2.774-1.607c0.616-0.938,1.019-2.157,1.206-3.658h4.703
			c-0.697,6.084-3.672,9.125-8.924,9.125c-2.734,0-4.912-1.025-6.533-3.074c-1.621-2.051-2.432-4.817-2.432-8.302
			C-321.355,165.485-320.578,162.497-319.023,160.245z M-340.73,159.964c1.661-2.251,4.046-3.376,7.155-3.376
			c3.136,0,5.548,1.125,7.235,3.376c1.635,2.145,2.453,5.079,2.453,8.804c0,3.752-0.818,6.687-2.453,8.803
			c-1.688,2.197-4.1,3.296-7.235,3.296c-3.109,0-5.494-1.099-7.155-3.296c-1.582-2.117-2.372-5.051-2.372-8.803
			S-342.313,162.081-340.73,159.964z M-368.467,149.07h11.175c3.671,0,6.552,1.434,8.643,4.301
			c1.956,2.708,2.935,6.258,2.935,10.653c0,4.744-0.912,8.496-2.734,11.256c-2.01,3.081-4.971,4.622-8.883,4.622h-11.135V149.07z
			 M-431.387,145.019c13.196-0.085,24.146,10.608,24.232,23.663c0.086,12.904-10.973,24.117-23.877,24.211
			c-12.998,0.094-24.09-10.839-24.179-23.833C-455.3,155.936-444.565,145.104-431.387,145.019z M-396.605,232.447
			c-3.93,7.422-11.25,8.43-18.431,9.094c-5.292,0.49-10.665,0.096-16.003,0.096c-0.015,0.234-0.031,0.471-0.045,0.705
			c-7.604-0.627-15.292-0.742-22.787-2.012c-9.112-1.543-13.199-6.764-13.438-15.822c-0.259-9.792,0.176-19.528,5.477-28.236
			c4.762-7.824,7.472-8.406,14.916-3.539c10.039,6.563,23.361,6.367,33.146-1.432c3.826-3.049,6.088-2.861,9.389,0.121
			C-396.098,198.911-391.436,222.688-396.605,232.447z M-255.881,232.287c-0.057,8.771-0.656,9.465-8.721,9.479
			c-16.236,0.029-32.471,0.01-48.707,0.01c-16.467,0-32.943-0.295-49.398,0.135c-7.25,0.191-8.551-3.107-8.379-9.283
			c0.285-10.221,0.42-10.916,8.008-10.932c32.934-0.064,65.869-0.059,98.805-0.006C-256.43,221.701-255.816,222.607-255.881,232.287
			z"/>
	</g>
</g>
<g>
	<g>
		<path fill="#83C441" d="M105.944,263.833c-3.692,0-5.154-0.795-3.32-1.747l24.423-12.691c1.132-0.589,4.299-1.055,7.098-1.055
			h47.502c2.799,0,4.724,0.466,4.289,1.055c-0.444,0.603-3.182,1.103-6.104,1.103H135.51l-19.883,11.589
			C113.992,263.039,109.635,263.833,105.944,263.833z"/>
		<path fill="#83C441" d="M339.055,263.833c-3.691,0-8.048-0.795-9.684-1.747l-19.883-11.589h-44.323
			c-2.923,0-5.658-0.5-6.103-1.103c-0.435-0.589,1.49-1.055,4.288-1.055h47.503c2.798,0,5.965,0.466,7.097,1.055l24.425,12.691
			C344.208,263.039,342.746,263.833,339.055,263.833z"/>
		<path fill="#83C441" d="M425.266,311.197H316.253c-6.424,0-13.386-2.381-15.451-5.184c-1.963-2.662,1.262-4.725,7.11-4.725h88.726
			l-47.257-27.541c-2.231-1.301-0.635-2.322,3.495-2.322s9.44,1.021,11.942,2.322l62.098,32.265
			C432.31,308.816,431.689,311.197,425.266,311.197z"/>
		<path fill="#83C441" d="M128.747,311.197H19.732c-6.423,0-7.043-2.381-1.65-5.184l62.097-32.265
			c2.502-1.301,7.813-2.322,11.944-2.322c4.129,0,5.725,1.021,3.495,2.322L48.36,301.289h88.725c5.851,0,9.074,2.063,7.112,4.725
			C142.131,308.816,135.168,311.197,128.747,311.197z"/>
	</g>
	<g>
		
			<rect x="92.083" y="68.577" transform="matrix(0.9855 -0.1698 0.1698 0.9855 -18.802 39.2405)" fill="#FFFFFF" width="256.001" height="122.001"/>
		<g>
			<path fill="#83C441" d="M299.294,103.985c1.479-0.255,2.511-1.174,3.095-2.757c0.584-1.583,0.664-3.602,0.241-6.058
				c-0.424-2.457-1.176-4.339-2.258-5.648c-1.082-1.309-2.363-1.836-3.842-1.582c-1.453,0.25-2.463,1.172-3.031,2.766
				c-0.569,1.594-0.641,3.618-0.218,6.075c0.423,2.456,1.167,4.333,2.234,5.632C296.583,103.711,297.841,104.235,299.294,103.985z"
				/>
			<path fill="#83C441" d="M247.083,112.979c1.479-0.255,2.51-1.174,3.095-2.757c0.583-1.583,0.664-3.602,0.241-6.058
				c-0.423-2.457-1.177-4.339-2.258-5.648c-1.083-1.309-2.362-1.836-3.842-1.582c-1.452,0.25-2.464,1.172-3.032,2.766
				c-0.568,1.594-0.641,3.619-0.218,6.075c0.423,2.456,1.168,4.333,2.234,5.631C244.37,112.705,245.63,113.229,247.083,112.979z"/>
			<path fill="#83C441" d="M228.188,103.221c-0.505-2.932-1.417-5.222-2.733-6.872c-1.642-2.11-3.81-2.933-6.504-2.469l-5.506,0.948
				l3.808,22.105l5.546-0.955C227.71,115.133,229.507,110.88,228.188,103.221z"/>
			<path fill="#83C441" d="M358.827,22.191c-1.08-6.387-3.64-7.833-9.855-6.751C253.754,32,158.508,48.397,63.244,64.674
				c-5.776,0.987-7.782,2.838-6.682,9.084c10.151,57.657,20.072,115.356,29.833,173.082c0.974,5.754,3.183,7.26,8.805,6.219
				c19.186-3.557,38.447-6.706,57.672-10.062c1.497-0.262,2.924-0.922,4.696-1.498c-1.446-8.396-2.85-16.384-4.193-24.381
				c-1.37-8.163-0.884-8.727,8.527-10.317c8.837-1.495,9.614-1.036,10.994,6.79c1.472,8.351,2.886,16.71,4.271,24.752
				c41.288-7.112,81.472-14.034,122.102-21.033c-1.576-9.15-2.925-17.846-4.618-26.477c-0.922-4.699,0.77-7.099,5.345-7.804
				c2.065-0.32,4.129-0.664,6.179-1.076c4.754-0.958,7.406,0.527,8.125,5.737c1.198,8.693,2.9,17.319,4.525,26.753
				c21.607-3.723,42.16-7.479,62.797-10.69c6.483-1.01,7.847-3.718,6.772-9.85C378.375,136.695,368.507,79.459,358.827,22.191z
				 M324.221,122.291l-104.92,18.073c-1.507,0.26-2.938-0.751-3.197-2.257c-0.259-1.507,0.751-2.938,2.258-3.197l104.92-18.073
				c1.505-0.259,2.938,0.75,3.197,2.257C326.738,120.6,325.726,122.032,324.221,122.291z M328.573,131.249
				c0.259,1.505-0.753,2.938-2.258,3.197l-104.92,18.072c-1.507,0.26-2.938-0.752-3.197-2.258c-0.259-1.506,0.751-2.938,2.258-3.197
				l104.92-18.073C326.88,128.731,328.313,129.742,328.573,131.249z M308.957,82.414l4.518-0.778l0.314,1.822
				c1.065-1.706,2.43-2.703,4.093-2.989c0.503-0.086,1.053-0.127,1.651-0.122l0.833,4.833c-0.649-0.133-1.276-0.147-1.884-0.042
				c-1.188,0.205-2.091,0.843-2.709,1.915c-0.618,1.071-0.783,2.439-0.496,4.103l2.204,12.796l-4.675,0.806L308.957,82.414z
				 M289.37,88.521c1.256-2.5,3.415-4.015,6.479-4.542c3.089-0.532,5.657,0.167,7.703,2.099c1.975,1.836,3.278,4.589,3.911,8.26
				c0.637,3.698,0.329,6.729-0.922,9.092c-1.291,2.452-3.481,3.944-6.571,4.476c-3.064,0.528-5.601-0.15-7.611-2.033
				c-1.918-1.817-3.194-4.575-3.832-8.273C287.89,93.902,288.171,90.876,289.37,88.521z M274.487,88.311l2.496-0.43l-1.038-6.021
				l4.794-0.826l1.037,6.021l2.932-0.505l0.635,3.684l-2.932,0.505l2.375,13.786c0.109,0.634,0.281,1.006,0.518,1.114
				c0.236,0.109,0.67,0.095,1.299-0.04c0.364-0.09,0.804-0.221,1.319-0.391l0.607,3.526c-0.892,0.506-1.919,0.86-3.081,1.061
				c-3.037,0.523-4.844-0.893-5.422-4.247l-2.409-13.984l-2.495,0.43L274.487,88.311z M258.598,94.107
				c1.253-2.663,3.386-4.254,6.397-4.773c5.097-0.878,8.365,1.523,9.807,7.203l-4.635,0.798c-0.961-3.042-2.457-4.39-4.489-4.04
				c-1.4,0.241-2.362,1.291-2.885,3.148c-0.444,1.682-0.463,3.71-0.054,6.087c0.4,2.324,1.096,4.067,2.084,5.229
				c0.989,1.162,2.104,1.636,3.345,1.422c1.11-0.191,1.931-0.875,2.462-2.055c0.447-1.029,0.638-2.298,0.567-3.81l4.635-0.798
				c0.346,6.114-2.069,9.616-7.245,10.507c-2.695,0.464-5.016-0.177-6.961-1.92c-1.945-1.746-3.214-4.335-3.805-7.769
				C257.189,99.667,257.448,96.59,258.598,94.107z M237.158,97.515c1.255-2.5,3.414-4.015,6.479-4.542
				c3.09-0.532,5.658,0.167,7.703,2.1c1.976,1.836,3.28,4.588,3.912,8.259c0.638,3.698,0.329,6.729-0.923,9.092
				c-1.29,2.452-3.48,3.944-6.571,4.477c-3.063,0.528-5.601-0.15-7.61-2.034c-1.919-1.817-3.195-4.575-3.832-8.272
				C235.678,102.896,235.958,99.87,237.158,97.515z M207.975,91.487l11.013-1.897c3.617-0.623,6.7,0.301,9.247,2.772
				c2.388,2.336,3.954,5.668,4.7,10c0.806,4.675,0.543,8.527-0.784,11.557c-1.457,3.377-4.113,5.399-7.969,6.063l-10.974,1.89
				L207.975,91.487z M145.281,98.176c12.989-2.324,25.597,6.355,27.897,19.206c2.275,12.703-6.72,25.63-19.421,27.913
				c-12.793,2.299-25.58-6.592-27.874-19.383C123.567,112.994,132.308,100.497,145.281,98.176z M194.398,178.431
				c-2.612,7.981-9.655,10.218-16.62,12.091c-5.131,1.381-10.493,1.904-15.753,2.811c0.024,0.233,0.049,0.47,0.075,0.703
				c-7.6,0.673-15.196,1.864-22.799,1.886c-9.242,0.026-14.156-4.425-15.928-13.312c-1.917-9.606-3.142-19.274,0.604-28.756
				c3.364-8.52,5.937-9.553,14.099-6.02c11.008,4.764,24.104,2.309,32.423-7.038c3.253-3.654,5.514-3.854,9.273-1.475
				C189.206,145.295,197.836,167.936,194.398,178.431z M333.053,154.385c1.434,8.653,0.96,9.438-6.985,10.821
				c-15.995,2.785-31.997,5.521-47.998,8.277c-16.228,2.796-32.516,5.302-48.658,8.519c-7.112,1.42-8.955-1.61-9.834-7.726
				c-1.454-10.121-1.438-10.829,6.036-12.133c32.444-5.654,64.903-11.239,97.37-16.778
				C330.715,144.046,331.474,144.835,333.053,154.385z"/>
		</g>
	</g>
</g>
<polyline fill="none" stroke="#4559A8" stroke-width="16" stroke-linecap="round" stroke-linejoin="round" stroke-miterlimit="10" points="
	-380,453 -380,378 -305,378 "/>
<polyline fill="none" stroke="#4559A8" stroke-width="16" stroke-linecap="round" stroke-linejoin="round" stroke-miterlimit="10" points="
	-176,378 -101,378 -101,453 "/>
<polyline fill="none" stroke="#4559A8" stroke-width="16" stroke-linecap="round" stroke-linejoin="round" stroke-miterlimit="10" points="
	-101,499.227 -101,574.226 -176,574.226 "/>
<polyline fill="none" stroke="#4559A8" stroke-width="16" stroke-linecap="round" stroke-linejoin="round" stroke-miterlimit="10" points="
	-305,574.226 -380,574.226 -380,499.227 "/>
</svg>
