<?xml version="1.0" encoding="utf-8"?>
<!-- Generator: Adobe Illustrator 16.0.0, SVG Export Plug-In . SVG Version: 6.00 Build 0)  -->
<!DOCTYPE svg PUBLIC "-//W3C//DTD SVG 1.1//EN" "http://www.w3.org/Graphics/SVG/1.1/DTD/svg11.dtd">
<svg version="1.1" id="Layer_1" xmlns="http://www.w3.org/2000/svg" xmlns:xlink="http://www.w3.org/1999/xlink" x="0px" y="0px"
	 width="50px" height="50px" viewBox="0 0 50 50" enable-background="new 0 0 50 50" xml:space="preserve">
<g>
	<path fill-rule="evenodd" clip-rule="evenodd" fill="#FFFFFF" d="M18.605,47.498c2.494,0.51,2.793-0.069,3.966-2.211
		c0.533-0.974,0.729-2.677,0.641-3.999c-0.321-4.829-0.91-9.636-0.756-14.495c0.067-2.134-0.08-4.399-2.527-5.152
		c-2.252-0.693-4.646-1.019-6.5,1.177c-0.497,0.59-0.69,2.061-2.026,0.535c-1.251-1.43-1.843-0.047-2.166,1.006
		c-1.298,4.234-2.567,8.478-3.77,12.74c-0.284,1.005-0.605,2.727,1.111,2.32c2.884-0.682,1.132,1.103,1.045,1.734
		c-0.6,4.33,1.453,6.57,5.744,6.048C15.043,46.997,16.677,46.998,18.605,47.498z M41.882,38.468
		c-0.786-6.423-1.417-12.071-2.194-17.698c-0.3-2.175-1.737-3.428-3.979-3.555c-1.968-0.111-3.488,1.007-3.592,2.771
		c-0.429,7.286-4.301,14.435-0.968,21.88c0.403,0.901-0.238,1.576-0.547,2.329c-0.437,1.059-1.678,2.272,0.229,3.087
		c1.749,0.747,2.487-0.467,3.128-1.821c0.445-0.94,0.428-2.563,1.825-2.419c1.302,0.134,1.323,1.604,1.372,2.688
		c0.051,1.11,0.268,1.991,1.612,1.831c0.896-0.107,1.814-0.781,1.653-1.582C39.813,42.973,41.206,40.399,41.882,38.468z
		 M19.039,10.391c-1.316-0.55-1.502-2.7-3.271-1.965c-1.594,0.661-1.561,2.151-1.602,3.527c-0.05,1.66-0.118,3.335,0.038,4.983
		c0.302,3.201,1.524,3.604,4.391,2.183c4.146-2.056,2.192-5.458,2.124-8.397c-0.188-7.97-2.926-9.709-10.054-6.546
		C9.275,4.791,7.593,5.212,7.938,7.25c0.232,1.375,1.195,2.194,2.65,2.134c1.932-0.081,2.572-1.332,2.604-3.077
		c0.039-2.097,1.5-2.47,3.141-2.416c1.621,0.054,2.549,1.043,2.685,2.628C19.123,7.742,19.039,8.981,19.039,10.391z M40.382,10.186
		c-0.551-2.23-1.847-4.279-4.592-4.237c-2.672,0.042-4.521,1.882-4.412,4.567c0.104,2.561,1.813,4.499,4.539,4.545
		C38.74,15.109,40.042,13.173,40.382,10.186z"/>
</g>
</svg>
