<?xml version="1.0" encoding="utf-8"?>
<!-- Generator: Adobe Illustrator 16.0.0, SVG Export Plug-In . SVG Version: 6.00 Build 0)  -->
<!DOCTYPE svg PUBLIC "-//W3C//DTD SVG 1.1//EN" "http://www.w3.org/Graphics/SVG/1.1/DTD/svg11.dtd">
<svg version="1.1" id="Layer_1" xmlns="http://www.w3.org/2000/svg" xmlns:xlink="http://www.w3.org/1999/xlink" x="0px" y="0px"
	 width="302.596px" height="305.739px" viewBox="0 0 302.596 305.739" enable-background="new 0 0 302.596 305.739"
	 xml:space="preserve">
<g>
	<path fill="#0E2C73" d="M202.882,138.203c0,28.499-23.071,51.6-51.568,51.6l0,0c-28.497,0-51.599-23.102-51.599-51.6V53.631
		c0-28.497,23.102-51.599,51.599-51.599l0,0c28.497,0,51.568,23.102,51.568,51.599V138.203z"/>
	<path fill="#0E2C73" d="M256.845,142.553c0-8.22-6.664-14.885-14.886-14.885c-8.22,0-14.884,6.665-14.884,14.885
		c0,45.478-33.981,82.478-75.75,82.478c-41.798,0-75.804-37-75.804-82.478c0-8.22-6.664-14.885-14.885-14.885
		c-8.22,0-14.885,6.665-14.885,14.885c0,56.512,39.485,103.396,90.662,111.123v35.146c0,8.22,6.665,14.885,14.885,14.885
		s14.885-6.665,14.885-14.885v-35.139C217.356,245.979,256.845,199.083,256.845,142.553z"/>
</g>
</svg>
