<?xml version="1.0" encoding="utf-8"?>
<!-- Generator: Adobe Illustrator 16.0.0, SVG Export Plug-In . SVG Version: 6.00 Build 0)  -->
<!DOCTYPE svg PUBLIC "-//W3C//DTD SVG 1.1//EN" "http://www.w3.org/Graphics/SVG/1.1/DTD/svg11.dtd">
<svg version="1.1" id="Layer_1" xmlns="http://www.w3.org/2000/svg" xmlns:xlink="http://www.w3.org/1999/xlink" x="0px" y="0px"
	 width="150px" height="175.833px" viewBox="0 0 150 175.833" enable-background="new 0 0 150 175.833" xml:space="preserve">
<g>
	<rect x="0.497" y="0.5" fill="#FFFFFF" width="149.006" height="174.833"/>
	<path fill="#E7E6F0" d="M150,175.833H0V0h150V175.833z M0.993,174.834h148.014V0.999H0.993V174.834z"/>
</g>
<g>
	<g>
		<path fill-rule="evenodd" clip-rule="evenodd" fill="#E7E6F0" d="M58.652,84.363c1.936,5.658,3.538,10.319,5.127,14.984
			c1.515,4.455,3.017,8.913,4.71,13.92c2.767-4.313,3.347-7.804-1.942-11.779c3.322-1.921,5.718-4.096,8.417-4.573
			c1.643-0.292,3.896,1.861,5.567,3.279c0.593,0.501,0.492,2.106,0.335,3.153c-0.454,3.021-1.098,6.014-1.665,9.018
			c0.706,0.172,1.413,0.345,2.12,0.518c3.11-9.142,6.221-18.284,9.56-28.1c1.952,0.866,3.478,1.427,4.896,2.191
			c8.445,4.553,16.823,9.231,25.319,13.688c2.677,1.403,3.648,2.94,3.014,6.088c-2.47,12.256-4.758,24.553-6.875,36.877
			c-0.618,3.588-2.131,4.672-5.774,4.648c-24.361-0.164-48.725-0.166-73.086,0.003c-3.921,0.027-5.233-1.188-5.874-5.069
			c-1.976-11.998-4.566-23.894-6.688-35.87c-0.308-1.736,0.028-4.757,1.111-5.39C37.099,96.011,47.504,90.465,58.652,84.363z"/>
		<path fill-rule="evenodd" clip-rule="evenodd" fill="#E7E6F0" d="M101.083,54.15C101,68.549,89.237,80.305,74.949,80.27
			C60.406,80.235,48.5,68.394,48.382,53.847c-0.118-14.416,11.916-26.313,26.596-26.292C89.605,27.577,101.167,39.356,101.083,54.15
			z"/>
	</g>
</g>
</svg>
